0
SECTION
2
HEADER
9
$ACADVER
1
AC1014
9
$INSUNITS
70
4
0
ENDSEC
0
SECTION
2
ENTITIES
0
LWPOLYLINE
8
Building
90
4
70
1
10
0.0
20
0.0
10
80.0
20
0.0
10
80.0
20
40.0
10
0.0
20
40.0
0
LWPOLYLINE
8
Inbound_Dock
90
4
70
1
10
0.0
20
15.0
10
-5.0
20
15.0
10
-5.0
20
25.0
10
0.0
20
25.0
0
LWPOLYLINE
8
Outbound_Dock
90
4
70
1
10
80.0
20
15.0
10
85.0
20
15.0
10
85.0
20
25.0
10
80.0
20
25.0
0
LWPOLYLINE
8
Workstation_1
90
4
70
1
10
10.0
20
10.0
10
18.0
20
10.0
10
18.0
20
18.0
10
10.0
20
18.0
0
LWPOLYLINE
8
Workstation_2
90
4
70
1
10
10.0
20
22.0
10
18.0
20
22.0
10
18.0
20
30.0
10
10.0
20
30.0
0
LWPOLYLINE
8
Workstation_3
90
4
70
1
10
25.0
20
10.0
10
33.0
20
10.0
10
33.0
20
18.0
10
25.0
20
18.0
0
LWPOLYLINE
8
Workstation_4
90
4
70
1
10
25.0
20
22.0
10
33.0
20
22.0
10
33.0
20
30.0
10
25.0
20
30.0
0
LWPOLYLINE
8
Workstation_5
90
4
70
1
10
40.0
20
10.0
10
48.0
20
10.0
10
48.0
20
18.0
10
40.0
20
18.0
0
LWPOLYLINE
8
Workstation_6
90
4
70
1
10
40.0
20
22.0
10
48.0
20
22.0
10
48.0
20
30.0
10
40.0
20
30.0
0
LWPOLYLINE
8
QC_Area
90
4
70
1
10
55.0
20
12.0
10
65.0
20
12.0
10
65.0
20
28.0
10
55.0
20
28.0
0
LWPOLYLINE
8
Packing_Area
90
4
70
1
10
70.0
20
10.0
10
78.0
20
10.0
10
78.0
20
30.0
10
70.0
20
30.0
0
LINE
8
Conveyor_Main
10
0.0
20
20.0
30
0.0
11
10.0
21
20.0
31
0.0
0
LINE
8
Conveyor_Main
10
18.0
20
20.0
30
0.0
11
25.0
21
20.0
31
0.0
0
LINE
8
Conveyor_Main
10
33.0
20
20.0
30
0.0
11
40.0
21
20.0
31
0.0
0
LINE
8
Conveyor_Main
10
48.0
20
20.0
30
0.0
11
55.0
21
20.0
31
0.0
0
LINE
8
Conveyor_Main
10
65.0
20
20.0
30
0.0
11
70.0
21
20.0
31
0.0
0
LINE
8
Conveyor_Main
10
78.0
20
20.0
30
0.0
11
80.0
21
20.0
31
0.0
0
LINE
8
Conveyor_Branch
10
10.0
20
14.0
30
0.0
11
10.0
21
20.0
31
0.0
0
LINE
8
Conveyor_Branch
10
10.0
20
20.0
30
0.0
11
10.0
21
26.0
31
0.0
0
LINE
8
Conveyor_Branch
10
18.0
20
14.0
30
0.0
11
18.0
21
26.0
31
0.0
0
LINE
8
Conveyor_Branch
10
25.0
20
14.0
30
0.0
11
25.0
21
26.0
31
0.0
0
LINE
8
Conveyor_Branch
10
33.0
20
14.0
30
0.0
11
33.0
21
26.0
31
0.0
0
LINE
8
Conveyor_Branch
10
40.0
20
14.0
30
0.0
11
40.0
21
26.0
31
0.0
0
LINE
8
Conveyor_Branch
10
48.0
20
14.0
30
0.0
11
48.0
21
26.0
31
0.0
0
LINE
8
Office_Wall
10
0.0
20
35.0
30
0.0
11
25.0
21
35.0
31
0.0
0
LINE
8
Office_Wall
10
25.0
20
35.0
30
0.0
11
25.0
21
40.0
31
0.0
0
LWPOLYLINE
8
Buffer_Zone
90
4
70
1
10
2.0
20
2.0
10
8.0
20
2.0
10
8.0
20
8.0
10
2.0
20
8.0
0
LWPOLYLINE
8
Buffer_Zone
90
4
70
1
10
2.0
20
32.0
10
8.0
20
32.0
10
8.0
20
38.0
10
2.0
20
38.0
0
ENDSEC
0
EOF
